<svg xmlns="http://www.w3.org/2000/svg" xmlns:xlink="http://www.w3.org/1999/xlink" viewBox="0 0 43 43"><defs><style>.cls-1{mask:url(#mask);filter:url(#luminosity-noclip-3);}.cls-2{fill:none;stroke:#000;stroke-miterlimit:10;stroke-width:4.42px;}.cls-3{fill:#040f21;}.cls-4{mask:url(#mask-2);}.cls-5{fill:url(#linear-gradient);}.cls-6{mask:url(#mask-3);}.cls-7{filter:url(#luminosity-noclip-2);}.cls-8{filter:url(#luminosity-noclip);}</style><filter id="luminosity-noclip" x="32.52" y="-16315" width="8.75" height="32766" filterUnits="userSpaceOnUse" color-interpolation-filters="sRGB"><feFlood flood-color="#fff" result="bg"/><feBlend in="SourceGraphic" in2="bg"/></filter><mask id="mask" x="32.52" y="-16315" width="8.75" height="32766" maskUnits="userSpaceOnUse"><g class="cls-8"/></mask><filter id="luminosity-noclip-2" x="2.36" y="-16315" width="39.63" height="32766" filterUnits="userSpaceOnUse" color-interpolation-filters="sRGB"><feFlood flood-color="#fff" result="bg"/><feBlend in="SourceGraphic" in2="bg"/></filter><mask id="mask-2" x="2.36" y="-16315" width="39.63" height="32766" maskUnits="userSpaceOnUse"><g class="cls-7"/></mask><linearGradient id="linear-gradient" x1="22.17" y1="60.87" x2="22.17" y2="-17.54" gradientUnits="userSpaceOnUse"><stop offset="0.21" stop-color="#3f97f5"/><stop offset="0.83" stop-color="#3fa9f5"/></linearGradient><filter id="luminosity-noclip-3" x="32.12" y="6.83" width="18.08" height="25.84" filterUnits="userSpaceOnUse" color-interpolation-filters="sRGB"><feFlood flood-color="#fff" result="bg"/><feBlend in="SourceGraphic" in2="bg"/></filter><mask id="mask-3" x="32.12" y="6.83" width="18.08" height="25.84" maskUnits="userSpaceOnUse"></mask></defs><title>Dlogo</title><g id="Layer_1" data-name="Layer 1"><path class="cls-3" d="M28.43,31.83a23.24,23.24,0,0,1-5.41.78c-6.12,0-8.86-2.07-8.86-11.48S17.44,9.44,23.34,9.44a18.52,18.52,0,0,1,5.09.71l-.51,3.28a16.24,16.24,0,0,0-4.22-.61c-3.62,0-5.16,1.13-5.16,8.18S20,29.22,23.7,29.22a15.69,15.69,0,0,0,4.22-.67Z"/><g class="cls-4"><path class="cls-5" d="M22.17,41.31A19.81,19.81,0,1,1,42,21.5,19.83,19.83,0,0,1,22.17,41.31Zm0-35.21a15.4,15.4,0,1,0,15.4,15.4A15.41,15.41,0,0,0,22.17,6.1Z"/></g></g></svg>