<svg width="18" height="18" viewBox="0 0 18 18" fill="none" xmlns="http://www.w3.org/2000/svg">
<g clip-path="url(#clip0_31024_11277)">
<path d="M11.25 15H3.75V5.25C3.75 4.8375 3.4125 4.5 3 4.5C2.5875 4.5 2.25 4.8375 2.25 5.25V15C2.25 15.825 2.925 16.5 3.75 16.5H11.25C11.6625 16.5 12 16.1625 12 15.75C12 15.3375 11.6625 15 11.25 15ZM15 12V3C15 2.175 14.325 1.5 13.5 1.5H6.75C5.925 1.5 5.25 2.175 5.25 3V12C5.25 12.825 5.925 13.5 6.75 13.5H13.5C14.325 13.5 15 12.825 15 12ZM13.5 12H6.75V3H13.5V12Z" fill="#052D8B"/>
</g>
<defs>
<clipPath id="clip0_31024_11277">
<rect width="18" height="18" fill="white"/>
</clipPath>
</defs>
</svg>
