<svg width="24" height="24" viewBox="0 0 24 24" fill="none" xmlns="http://www.w3.org/2000/svg">
<path d="M12.1755 18.7111C8.36905 18.7485 5.28408 15.6493 5.32139 11.8656C5.27164 8.09437 8.35661 4.99522 12.1382 5.03256C14.1409 5.02011 15.7083 5.65488 17.0767 6.9493L15.3227 8.70425C14.5141 7.82055 13.407 7.43471 12.1382 7.43471C9.613 7.39738 7.92123 9.3888 7.97099 11.8781C7.89635 14.3425 9.62544 16.3712 12.1506 16.3214C13.4941 16.3339 14.539 15.9107 15.4098 15.0146L17.1637 16.7695C15.7954 18.039 14.1285 18.7609 12.1755 18.736V18.7111Z" fill="#0B163E"/>
<path d="M21.3931 19.4704C25.411 14.3549 24.7269 7.11111 19.7387 2.842C14.3399 -1.83785 5.81893 -0.580762 1.95027 5.45574C-2.72695 12.6373 1.45269 22.221 9.76223 23.7644C14.0165 24.673 18.7311 22.8931 21.4055 19.4704H21.3931ZM19.7138 17.4665C17.9847 19.9185 15.1858 21.4618 12.0013 21.4618C5.18452 21.4991 0.532176 14.2429 3.3808 8.06948C4.10229 6.52613 5.22184 5.11969 6.67725 4.19865C10.5584 1.43555 16.2183 2.35659 19.1416 5.87892C21.9777 9.17721 22.2017 14.0189 19.7138 17.4665Z" fill="#3F9AF5"/>
</svg>
