<svg width="18" height="18" viewBox="0 0 18 18" fill="none" xmlns="http://www.w3.org/2000/svg">
<g clip-path="url(#clip0_31024_9345)">
<path d="M13.5 14.25H4.5C4.0875 14.25 3.75 13.9125 3.75 13.5V4.5C3.75 4.0875 4.0875 3.75 4.5 3.75H8.25C8.6625 3.75 9 3.4125 9 3C9 2.5875 8.6625 2.25 8.25 2.25H3.75C2.9175 2.25 2.25 2.925 2.25 3.75V14.25C2.25 15.075 2.925 15.75 3.75 15.75H14.25C15.075 15.75 15.75 15.075 15.75 14.25V9.75C15.75 9.3375 15.4125 9 15 9C14.5875 9 14.25 9.3375 14.25 9.75V13.5C14.25 13.9125 13.9125 14.25 13.5 14.25ZM10.5 3C10.5 3.4125 10.8375 3.75 11.25 3.75H13.1925L6.345 10.5975C6.0525 10.89 6.0525 11.3625 6.345 11.655C6.6375 11.9475 7.11 11.9475 7.4025 11.655L14.25 4.8075V6.75C14.25 7.1625 14.5875 7.5 15 7.5C15.4125 7.5 15.75 7.1625 15.75 6.75V2.25H11.25C10.8375 2.25 10.5 2.5875 10.5 3Z" fill="#052D8B"/>
</g>
<defs>
<clipPath id="clip0_31024_9345">
<rect width="18" height="18" fill="white"/>
</clipPath>
</defs>
</svg>
