<svg width="69" height="18" viewBox="0 0 69 18" fill="none" xmlns="http://www.w3.org/2000/svg">
<path d="M6.83272 6.51488C7.9939 5.2692 10.3662 5.29412 11.4775 6.55225L12.7885 5.24429C11.7646 4.27266 10.591 3.79931 9.08017 3.81176C7.00752 3.79931 5.12215 5.03252 4.34803 6.92595C2.9621 10.3266 5.35939 14.0512 9.09266 14.0388C10.5535 14.0512 11.8146 13.5405 12.8384 12.5938L11.5274 11.2858C10.8906 11.9585 10.079 12.2823 9.08017 12.2699C7.78164 12.2948 6.59549 11.5349 6.15848 10.3142C5.73396 9.09342 5.89628 7.47405 6.82023 6.52733L6.83272 6.51488Z" fill="#0B163E"/>
<path d="M28.5835 8.67023C27.7345 6.93874 25.1749 6.29099 23.7515 7.67369V7.06331H21.8911V16.7547H23.7265V13.3041C24.2385 13.8024 24.9252 14.0391 25.6743 14.0391C28.4712 14.0391 29.7322 10.9623 28.5711 8.67023H28.5835ZM26.873 11.4356C26.5733 11.9962 26.0614 12.345 25.3747 12.3325C23.5018 12.3699 23.0398 9.76643 24.4882 8.86954C25.0001 8.55812 25.7867 8.58303 26.2861 8.89445C27.0977 9.39272 27.2975 10.6259 26.873 11.4356Z" fill="#0B163E"/>
<path d="M34.514 7.0625L32.8784 11.3974L31.3301 7.0625H29.2949L31.892 13.3033L30.2438 16.7663H32.2416C33.0407 14.9352 35.7002 8.95593 36.5492 7.0625H34.514Z" fill="#0B163E"/>
<path d="M37.2861 13.902V3.6875H39.1465V13.902H37.2861Z" fill="#0B163E"/>
<path d="M46.8624 8.57049C45.6388 6.26599 42.0304 6.44038 40.8068 8.65768C40.4946 9.19332 40.3323 9.79125 40.3323 10.4764C40.3073 12.5566 42.0179 14.0764 44.0656 14.0515C45.1394 14.0515 46.1382 13.6902 46.8499 12.8681L45.7387 11.7594C45.1144 12.5317 43.8658 12.6438 43.0292 12.2328C42.6297 11.9961 42.3051 11.5975 42.2177 11.1366H47.212C47.4118 10.2646 47.262 9.28052 46.8624 8.57049ZM42.9793 8.70751C43.7659 8.27152 44.977 8.40855 45.3766 9.30543C45.4515 9.43 45.489 9.57948 45.5264 9.74142H42.2177C42.3176 9.31789 42.6047 8.93173 42.9793 8.70751Z" fill="#0B163E"/>
<path d="M53.2805 7.06255V7.7103C52.3815 6.73867 50.6959 6.67639 49.6221 7.37397C46.8503 9.11791 47.8117 14.001 51.2952 14.0134C52.0569 14.0134 52.7561 13.7767 53.293 13.2411V13.8764H55.1659V7.06255H53.2805ZM52.9059 11.7961C52.5938 12.1449 52.1568 12.3193 51.6448 12.3193C50.621 12.3318 49.8469 11.4598 49.8968 10.4383C49.8718 9.0058 51.3202 8.15874 52.5438 8.86878C53.4678 9.45424 53.6551 11.0238 52.9059 11.7961Z" fill="#0B163E"/>
<path d="M63.3814 13.902L60.5596 10.3269L63.2565 7.06328H61.109L58.6243 10.2024V3.6875H56.7764V13.902H58.6243V10.5761L61.1214 13.902H63.3814Z" fill="#0B163E"/>
<path d="M66.228 14.0512C65.1043 14.0512 63.968 13.6277 63.2563 12.7681L64.3801 11.647C64.8421 12.1951 65.4788 12.4443 66.203 12.4443C66.5027 12.4443 66.7399 12.4069 66.8897 12.3072C67.2269 12.1329 67.1894 11.672 66.8772 11.51C65.9533 11.0117 64.5549 11.074 63.9181 10.065C63.556 9.51693 63.581 8.48302 64.0055 7.91001C64.2302 7.5986 64.5299 7.32455 64.9295 7.16261C66.228 6.62697 68.1383 6.8761 68.9998 8.07195L67.8761 9.20552C67.3892 8.58268 66.3778 8.29617 65.7036 8.60759C65.4164 8.76953 65.4414 9.20552 65.7285 9.355C65.8784 9.44219 66.1031 9.51693 66.3653 9.60413C66.8897 9.76607 67.5265 9.91555 68.0135 10.227C68.6003 10.6007 68.9124 11.1239 68.9 11.8837C68.9 13.3661 67.6763 14.0636 66.228 14.0512Z" fill="#0B163E"/>
<path d="M13.8498 8.65776C13.213 9.70413 13.2005 11.2363 13.8747 12.2827C14.0246 12.5443 14.2243 12.7809 14.4241 12.9927C14.499 13.0425 14.5864 13.1422 14.6988 13.2169C15.0734 12.7062 15.373 12.1581 15.6103 11.5477C15.4105 11.2363 15.3606 11.0495 15.3231 10.7007C15.2981 10.5014 15.2981 10.3021 15.3231 10.1027C15.3481 9.86607 15.423 9.67922 15.5354 9.49237C16.297 8.13458 18.3322 8.43354 18.7317 9.89098C18.7692 10.028 18.7817 10.165 18.7817 10.3021C18.8066 10.7879 18.7817 11.0245 18.5694 11.4356C18.4196 11.7097 18.1948 11.9339 17.9326 12.0709C17.7828 12.183 17.5331 12.2329 17.3708 12.2951C17.1335 12.9055 16.8464 13.4785 16.4843 14.0017H16.5093C18.8067 14.2508 20.7045 12.6439 20.692 10.3394C20.667 6.6896 15.6727 5.61832 13.8373 8.64531L13.8498 8.65776Z" fill="#0B163E"/>
<path d="M17.758 9.21799C17.2711 8.93149 16.472 8.98131 16.0849 9.4173C15.8727 13.1419 12.7762 16.1066 8.98046 16.1066C5.18475 16.1066 1.86352 12.9301 1.86352 9.00623C1.86352 5.08235 5.04741 1.90588 8.98046 1.90588C12.0894 1.90588 14.7489 3.92388 15.7103 6.71419C16.1224 6.57716 16.5719 6.50242 17.0338 6.50242C17.2586 6.50242 17.4584 6.51488 17.6706 6.53979C16.5968 2.7654 13.1008 0 8.98046 0C-2.99349 0.473356 -2.99349 17.5266 8.98046 18C13.9623 18 17.783 14.1758 17.9828 9.37993C17.9078 9.30519 17.8329 9.25536 17.7455 9.20554L17.758 9.21799Z" fill="#3F9AF5"/>
</svg>
