<svg width="15" height="13" viewBox="0 0 15 13" fill="none" xmlns="http://www.w3.org/2000/svg">
<path d="M7.50009 1.74813L13.1476 11.5056H1.85259L7.50009 1.74813ZM0.555091 10.7556C-0.0224091 11.7531 0.697591 13.0056 1.85259 13.0056H13.1476C14.3026 13.0056 15.0226 11.7531 14.4451 10.7556L8.79759 0.998125C8.22009 0.000625014 6.78009 0.000625014 6.20259 0.998125L0.555091 10.7556ZM6.75009 5.50563V7.00563C6.75009 7.41813 7.08759 7.75563 7.50009 7.75563C7.91259 7.75563 8.25009 7.41813 8.25009 7.00563V5.50563C8.25009 5.09313 7.91259 4.75563 7.50009 4.75563C7.08759 4.75563 6.75009 5.09313 6.75009 5.50563ZM6.75009 9.25563H8.25009V10.7556H6.75009V9.25563Z" fill="#D04340"/>
</svg>
