<svg width="12" height="13" viewBox="0 0 12 13" fill="none" xmlns="http://www.w3.org/2000/svg">
<path d="M9.4425 4.75H8.25V1C8.25 0.5875 7.9125 0.25 7.5 0.25H4.5C4.0875 0.25 3.75 0.5875 3.75 1V4.75H2.5575C1.89 4.75 1.5525 5.56 2.025 6.0325L5.4675 9.475C5.76 9.7675 6.2325 9.7675 6.525 9.475L9.9675 6.0325C10.44 5.56 10.11 4.75 9.4425 4.75ZM0.75 12.25C0.75 12.6625 1.0875 13 1.5 13H10.5C10.9125 13 11.25 12.6625 11.25 12.25C11.25 11.8375 10.9125 11.5 10.5 11.5H1.5C1.0875 11.5 0.75 11.8375 0.75 12.25Z" fill="#052D8B"/>
</svg>
